<?xml version="1.0" encoding="UTF-8"?><svg width="192px" height="192px" viewBox="0 0 192 192" version="1.1" xmlns="http://www.w3.org/2000/svg"><defs><linearGradient x1="0.000333333333%" y1="49.7234286%" x2="99.9996667%" y2="49.7234286%" id="linearGradient-1"><stop stop-color="#812063" offset="0%"/><stop stop-color="#AD1471" offset="24.72%"/><stop stop-color="#DB0D1E" offset="81.46%"/><stop stop-color="#DB0D1E" offset="100%"/></linearGradient></defs><rect fill="#FFFFFF" x="0" y="0" width="192" height="192"/><g id="Group" transform="translate(24.000000, 54.000000)"><polygon id="Path" fill="#24B5E7" points="97.92 32.16 60.48 47.52 60 17.28"/><path d="M106.08,64.8 L144,64.8 L144,83.52 L84,83.52 L84,44.64 L115.2,32.16 L136.8,32.16 L136.8,51.36 L106.56,51.36 L106.56,64.8 L106.08,64.8 Z M84,1.42108547e-14 L84,20.16 L106.56,28.8 L106.56,19.2 L106.56,19.2 L144,19.2 L144,1.42108547e-14 L84,1.42108547e-14 Z M22.08,18.24 L22.08,43.68 L36,43.68 C39.84,43.68 42.24,43.2 43.68,41.28 C45.6,39.36 46.56,36 46.56,30.72 C46.56,20.16 42.72,18.24 36,18.24 L22.08,18.24 L22.08,18.24 L22.08,18.24 M36.48,1.42108547e-14 L36.48,1.42108547e-14 C52.32,1.42108547e-14 62.4,1.92 66.72,13.44 L51.36,7.2 L51.36,48.96 L75.84,84 L50.4,84 L34.56,60.96 L22.08,60.96 L22.08,84 L0,84 L0,1.42108547e-14 L36.48,1.42108547e-14" id="Shape" fill="url(#linearGradient-1)"/></g></svg>
