<svg width="32" height="32" viewBox="0 0 32 32" fill="none" xmlns="http://www.w3.org/2000/svg">
    <rect width="32" height="32" fill="white"/>
    <path d="M10.7609 11.7457C10.7609 6.42133 15.0686 2.10254 20.3848 2.10254H11.619C6.30525 2.10254 2 6.41886 2 11.7408V29.8016H10.7634V11.7457H10.7609Z" fill="#0A0A0A"/>
    <path d="M20.3823 21.3863H15.4803L18.7154 29.8015H27.9892L24.0021 20.6797C22.8851 21.1343 21.662 21.3863 20.3823 21.3863Z" fill="#0A0A0A"/>
    <path d="M30.0063 11.7457C30.0063 6.42133 25.6986 2.10254 20.3824 2.10254C15.0686 2.10254 10.7584 6.41886 10.7584 11.7457V21.3889H20.3824C21.6621 21.3889 22.8851 21.1368 24.0021 20.6822C27.5232 19.2492 30.0063 15.7878 30.0063 11.7457Z" fill="#EB0055"/>
</svg>
