<svg width="32" height="32" viewBox="0 0 32 32" fill="none" xmlns="http://www.w3.org/2000/svg">
    <rect width="32" height="32" fill="white"/>
    <g clip-path="url(#clip0_5427_2532)">
        <path d="M20.2909 14.3951L14.0367 16.9532L14.0317 11.9265L20.2909 14.3951Z" fill="#0088CE"/>
        <path d="M21.711 19.8299H28V22.9355H17.9834V16.4654L23.1611 14.3353H26.7791V17.5405H21.711V19.8299ZM17.9834 9V12.3545L21.706 13.8227V12.1952L21.7209 12.2002H27.995V9H17.9834ZM7.66279 12.0359V16.2365H10.01C10.613 16.2365 11.0465 16.137 11.3256 15.8234C11.6296 15.5148 11.7741 14.9773 11.7741 14.0765C11.7741 12.2947 11.1462 11.9712 10.0299 11.9712H7.68771V12.031L7.66279 12.0359ZM10.0399 9C12.6661 9 14.3555 9.31853 15.0831 11.1998L12.5216 10.1945L12.5266 17.1523L16.613 22.9355H12.3771L9.71595 19.1281H7.68771V22.9355H4V9H10.0399Z" fill="#E4045C"/>
    </g>
    <defs>
        <clipPath id="clip0_5427_2532">
            <rect width="24" height="13.9355" fill="white" transform="translate(4 9)"/>
        </clipPath>
    </defs>
</svg>
