<svg width="360" height="120" viewBox="0 0 360 120" fill="none" xmlns="http://www.w3.org/2000/svg">
    <path d="M33.8596 38.2529C33.8596 17.7161 50.5083 1.05786 71.0546 1.05786H37.176C16.6391 1.05786 0 17.7065 0 38.2339V107.897H33.8691V38.2529H33.8596Z" fill="black"/>
    <path d="M71.0451 75.4384H52.0997L64.6029 107.897H100.445L85.0349 72.7129C80.7179 74.4664 75.9911 75.4384 71.0451 75.4384Z" fill="black"/>
    <path d="M108.24 38.2529C108.24 17.7161 91.5915 1.05786 71.0451 1.05786C50.5083 1.05786 33.8501 17.7065 33.8501 38.2529V75.448H71.0451C75.9911 75.448 80.718 74.4759 85.035 72.7224C98.6436 67.1951 108.24 53.8438 108.24 38.2529Z" fill="#EB0055"/>
    <path d="M149.238 51.7092L135.029 35.5275H131.655V51.7092H120.048V4.57446H143.901C149.009 4.57446 153.116 5.99441 156.213 8.83431C159.311 11.6742 160.854 15.3909 160.854 19.9842C160.854 23.8343 159.749 27.0745 157.548 29.7238C155.346 32.3731 152.316 34.117 148.475 34.9652L163.246 51.7092H149.247H149.238ZM142.624 25.8165C144.692 25.8165 146.34 25.3019 147.579 24.2727C148.818 23.2435 149.447 21.8616 149.447 20.1177C149.447 18.3737 148.828 17.0681 147.579 16.0389C146.331 15.0097 144.682 14.4951 142.624 14.4951H131.645V25.8261H142.624V25.8165Z" fill="#EB0055"/>
    <path d="M203.339 51.709H192.084V48.8977C189.225 51.4803 185.565 52.7668 181.105 52.7668C176.321 52.7668 172.252 51.0228 168.898 47.5254C165.543 44.0279 163.866 39.5393 163.866 34.0501C163.866 28.5609 165.543 24.1296 168.898 20.613C172.252 17.0965 176.321 15.3335 181.105 15.3335C185.565 15.3335 189.215 16.62 192.084 19.2026V16.3913H203.339V51.709ZM189.511 40.6257C191.226 38.9104 192.074 36.7185 192.074 34.0501C192.074 31.3818 191.217 29.2471 189.511 27.5031C187.795 25.7687 185.765 24.9015 183.421 24.9015C180.934 24.9015 178.894 25.7592 177.303 27.465C175.711 29.1804 174.911 31.3722 174.911 34.0406C174.911 36.709 175.711 38.9676 177.303 40.6543C178.894 42.3411 180.934 43.1893 183.421 43.1893C185.765 43.1893 187.795 42.3316 189.511 40.6257Z" fill="#EB0055"/>
    <path d="M212.058 51.7088V16.3911H223.313V51.7088H212.058Z" fill="#EB0055"/>
    <path d="M232.033 51.7091V1.05786H243.288V51.7091H232.033Z" fill="#EB0055"/>
    <path d="M156.766 107.897H120.038V60.7625H156.547V70.7497H131.645V79.6125H151.811V89.0375H131.645V97.9003H156.757V107.888L156.766 107.897Z" fill="#EB0055"/>
    <path d="M198.974 107.897H187.719V104.523C184.908 107.478 181.296 108.955 176.884 108.955C172.757 108.955 169.441 107.602 166.925 104.905C164.419 102.208 163.161 98.653 163.161 94.2503V72.5793H174.349V91.8582C174.349 93.9262 174.911 95.594 176.035 96.89C177.16 98.1765 178.618 98.8246 180.4 98.8246C182.697 98.8246 184.488 98.0145 185.785 96.3945C187.071 94.7744 187.719 92.3062 187.719 88.9707V72.5793H198.974V107.897Z" fill="#EB0055"/>
    <path d="M233.091 72.3699L232.595 83.6246H230.556C222.446 83.6246 218.386 88.037 218.386 96.8521V107.897H207.131V72.5795H218.386V79.3362C221.293 74.5046 225.353 72.0935 230.556 72.0935C231.49 72.0935 232.338 72.1888 233.091 72.3699Z" fill="#EB0055"/>
    <path d="M268.618 76.8774C272.373 80.3462 274.25 84.8062 274.25 90.2478C274.25 95.6893 272.373 100.216 268.618 103.685C264.863 107.154 260.289 108.888 254.895 108.888C249.501 108.888 244.774 107.154 241.001 103.685C237.227 100.216 235.34 95.737 235.34 90.2478C235.34 84.7586 237.227 80.3558 241.001 76.8774C244.774 73.4085 249.406 71.6741 254.895 71.6741C260.384 71.6741 264.863 73.4085 268.618 76.8774ZM260.88 96.8234C262.567 95.108 263.415 92.9161 263.415 90.2478C263.415 87.5794 262.557 85.378 260.851 83.6722C259.136 81.9568 257.154 81.1086 254.905 81.1086C252.656 81.1086 250.521 81.9663 248.786 83.6722C247.052 85.3875 246.185 87.5794 246.185 90.2478C246.185 92.9161 247.043 95.1175 248.748 96.8234C250.454 98.5292 252.513 99.3869 254.905 99.3869C257.297 99.3869 259.193 98.5292 260.88 96.8234Z" fill="#EB0055"/>
    <path d="M314.523 76.8013C317.878 80.3178 319.555 84.7968 319.555 90.2384C319.555 95.6799 317.878 100.216 314.523 103.714C311.169 107.211 307.1 108.955 302.316 108.955C297.856 108.955 294.206 107.668 291.337 105.086V119.857H280.083V72.5795H291.337V75.3908C294.196 72.8083 297.856 71.5217 302.316 71.5217C307.1 71.5217 311.169 73.2847 314.523 76.8013ZM306.118 96.8521C307.71 95.1653 308.51 92.9639 308.51 90.2384C308.51 87.5128 307.71 85.3686 306.118 83.6628C304.527 81.9474 302.487 81.0992 300 81.0992C297.656 81.0992 295.626 81.9665 293.91 83.7009C292.195 85.4353 291.347 87.6177 291.347 90.2479C291.347 92.8781 292.205 95.1177 293.91 96.8235C295.616 98.5294 297.646 99.387 300 99.387C302.487 99.387 304.527 98.5389 306.118 96.8521Z" fill="#EB0055"/>
    <path d="M360 93.1259H334.107C334.574 95.232 335.489 96.8998 336.852 98.1196C338.215 99.3394 339.835 99.9493 341.703 99.9493C345.219 99.9493 347.726 98.5865 349.231 95.8705L359.219 97.9099C357.722 101.569 355.454 104.324 352.433 106.172C349.412 108.021 345.829 108.955 341.703 108.955C336.499 108.955 332.087 107.211 328.475 103.714C324.863 100.216 323.062 95.7276 323.062 90.2384C323.062 84.7492 324.863 80.3178 328.475 76.8013C332.087 73.2847 336.518 71.5217 341.769 71.5217C347.02 71.5217 351.175 73.2371 354.644 76.6583C358.113 80.0795 359.895 84.6062 359.99 90.2384V93.1259H360ZM337.205 82.1475C335.794 83.1291 334.832 84.4919 334.317 86.2263H348.879C348.364 84.3966 347.468 83.0147 346.201 82.0713C344.933 81.1374 343.456 80.6609 341.769 80.6609C340.083 80.6609 338.605 81.1564 337.195 82.138L337.205 82.1475Z" fill="#EB0055"/>
    <path d="M224.361 6.17535C224.361 2.76366 221.598 0 218.186 0C214.774 0 212.011 2.76366 212.011 6.17535V12.3507H218.186C219.006 12.3507 219.787 12.1887 220.511 11.9028C222.77 10.9879 224.361 8.76748 224.361 6.18488V6.17535Z" fill="#EB0055"/>
</svg>
