<svg width="300" height="35" viewBox="0 0 300 35" fill="none" xmlns="http://www.w3.org/2000/svg">
    <path d="M111.735 0.545654V4.66477L120.704 8.2822H135.843V0.545654H111.735Z" fill="#E4045C"/>
    <path d="M120.704 21.1765H132.921V13.4487H120.704L111.735 17.0662V34.2203H135.843V26.7126H120.704V21.1765Z" fill="#E4045C"/>
    <path d="M30.3829 34.2203H20.1819L13.7744 25.0227H8.88074V34.2203H0V0.545654H14.5489C23.2448 0.545654 27.6808 2.00671 27.6808 12.7182C27.6808 19.3545 25.9381 21.9598 22.5583 22.9631L30.3829 34.2203ZM14.5489 17.9287C17.4798 17.9287 18.712 16.9693 18.712 12.8062C18.712 8.50223 17.1982 7.7277 14.5049 7.7277H8.87194V17.9287H14.5489Z" fill="#E4045C"/>
    <path d="M39.5893 34.2203H30.5325L43.7084 0.545654H51.9906L65.1665 34.2203H55.6521L53.9622 29.5555H41.288L39.5893 34.2203ZM47.6427 12.1637L43.8492 22.5055H51.4009L47.6427 12.1637Z" fill="#E4045C"/>
    <path d="M67.1644 0.545654H76.1772V34.2203H67.1644V0.545654Z" fill="#E4045C"/>
    <path d="M81.5901 0.545654H90.5589V26.7126H105.706V34.2115H81.5989V0.545654H81.5901Z" fill="#E4045C"/>
    <path d="M140.006 22.4174V0.545654H149.019V21.907C149.019 26.2109 151.122 26.7126 155.153 26.7126C159.228 26.7126 161.235 26.4397 161.235 22.0038V0.545654H169.834V22.3206C169.834 32.2047 165.442 34.678 155.1 34.678C144.723 34.678 140.006 32.4336 140.006 22.4174Z" fill="#E4045C"/>
    <path d="M205.296 34.2203H195.095L188.687 25.0227H183.793V34.2203H174.921V0.545654H189.47C198.166 0.545654 202.602 2.00671 202.602 12.7182C202.602 19.3545 200.86 21.9598 197.48 22.9631L205.296 34.2203ZM189.462 17.9287C192.393 17.9287 193.625 16.9693 193.625 12.8062C193.625 8.50223 192.12 7.7277 189.418 7.7277H183.793V17.9287H189.462Z" fill="#E4045C"/>
    <path d="M206.528 17.383C206.528 2.60525 213.067 0 223.136 0C233.249 0 239.657 2.51724 239.657 17.295C239.657 32.0728 233.161 34.7748 223.048 34.7748C212.979 34.766 206.528 32.1608 206.528 17.383ZM230.274 18.712V16.054C230.274 9.69928 228.672 7.58692 223.048 7.58692C217.459 7.58692 215.91 9.60247 215.91 15.9572V18.6064C215.91 24.9699 217.556 27.3463 223.136 27.3463C228.76 27.3551 230.274 25.0667 230.274 18.712Z" fill="#E4045C"/>
    <path d="M243.811 0.545654H258.818C267.514 0.545654 271.949 2.23555 271.949 12.947C271.949 23.6497 267.373 25.4804 258.774 25.4804H252.736V34.2203H243.811V0.545654ZM258.826 18.3863C260.789 18.3863 262.99 18.2015 262.99 13.035C262.99 7.86852 260.701 7.7277 258.782 7.7277H252.745V18.3863H258.826Z" fill="#E4045C"/>
    <path d="M275.884 0.545654H300V8.2822H284.861V13.4487H297.078V21.1764H284.861V26.7126H300V34.2115H275.884V0.545654Z" fill="#E4045C"/>
    <path d="M95.0213 1.69873V20.0323L117.747 10.8611L95.0213 1.69873Z" fill="#0088CE"/>
</svg>
